<svg xmlns="http://www.w3.org/2000/svg" viewBox="0 0 800 800" width="800" height="800"><g stroke-width="6" stroke="hsla(246, 77%, 40%, 1)" fill="none"><path d="M0 0h266.67v266.67H0zM266.67 0h266.67v266.67H266.67z"/><path d="M533.33 0H800v266.67H533.33zM800 0h266.67v266.67H800zM0 266.67h266.67v266.67H0zM266.67 266.67h266.67v266.67H266.67z"/><path d="M533.33 266.67H800v266.67H533.33zM800 266.67h266.67v266.67H800zM0 533.33h266.67V800H0z"/><path d="M266.67 533.33h266.67V800H266.67z"/><path d="M533.33 533.33H800V800H533.33zM800 533.33h266.67V800H800zM0 800h266.67v266.67H0zM266.67 800h266.67v266.67H266.67z"/><path d="M533.33 800H800v266.67H533.33zM800 800h266.67v266.67H800z"/></g></svg>